# xmcd
#
# Track frame offsets: 
#        150
#        19163
#        36080
#        50845
#        68355
#        83603
#        103493
#        122575
#        139080
#        152008
#        168453
#        186373
#        205128
#
# Disc length: 2993 seconds
#
# Revision: 2
# Processed by: cddbd v1.5.2PL0 Copyright (c) Steve Scherf et al.
# Submitted via: ExactAudioCopy v0.99pb4
#
DISCID=b00baf0d
DTITLE=The Cats - Live CD2
DYEAR=1991
DGENRE=Pop
TTITLE0=The Cats - One way wind (Live)
TTITLE1=The Cats - Darling oh darling (Live)
TTITLE2=The Cats - Save the last dance (Live)
TTITLE3=The Cats - Samaina (Live)
TTITLE4=The Cats - Second pair of eyes (Live)
TTITLE5=The Cats - Vaya con dios (Live)
TTITLE6=The Cats - A love like yours (Live)
TTITLE7=The Cats - Let's follow the sun (Live)
TTITLE8=The Cats - Love is a golden ring (Live)
TTITLE9=The Cats - Be my day (Live)
TTITLE10=The Cats - Country woman (Live)
TTITLE11=The Cats - Kansas city (Live)
TTITLE12=The Cats - End of the show (Live)
EXTD=
EXTT0=
EXTT1=
EXTT2=
EXTT3=
EXTT4=
EXTT5=
EXTT6=
EXTT7=
EXTT8=
EXTT9=
EXTT10=
EXTT11=
EXTT12=
PLAYORDER=
